<svg id="visual" viewBox="0 0 900 600" width="900" height="600" xmlns="http://www.w3.org/2000/svg" xmlns:xlink="http://www.w3.org/1999/xlink" version="1.1"><path d="M0 127L13.7 133C27.3 139 54.7 151 82 151C109.3 151 136.7 139 163.8 137C191 135 218 143 245.2 156C272.3 169 299.7 187 327 186C354.3 185 381.7 165 409 153C436.3 141 463.7 137 491 136C518.3 135 545.7 137 573 129C600.3 121 627.7 103 654.8 114C682 125 709 165 736.2 167C763.3 169 790.7 133 818 126C845.3 119 872.7 141 886.3 152L900 163L900 0L886.3 0C872.7 0 845.3 0 818 0C790.7 0 763.3 0 736.2 0C709 0 682 0 654.8 0C627.7 0 600.3 0 573 0C545.7 0 518.3 0 491 0C463.7 0 436.3 0 409 0C381.7 0 354.3 0 327 0C299.7 0 272.3 0 245.2 0C218 0 191 0 163.8 0C136.7 0 109.3 0 82 0C54.7 0 27.3 0 13.7 0L0 0Z" fill="#abe0bd"></path><path d="M0 169L13.7 188C27.3 207 54.7 245 82 255C109.3 265 136.7 247 163.8 242C191 237 218 245 245.2 262C272.3 279 299.7 305 327 294C354.3 283 381.7 235 409 222C436.3 209 463.7 231 491 240C518.3 249 545.7 245 573 233C600.3 221 627.7 201 654.8 217C682 233 709 285 736.2 283C763.3 281 790.7 225 818 214C845.3 203 872.7 237 886.3 254L900 271L900 161L886.3 150C872.7 139 845.3 117 818 124C790.7 131 763.3 167 736.2 165C709 163 682 123 654.8 112C627.7 101 600.3 119 573 127C545.7 135 518.3 133 491 134C463.7 135 436.3 139 409 151C381.7 163 354.3 183 327 184C299.7 185 272.3 167 245.2 154C218 141 191 133 163.8 135C136.7 137 109.3 149 82 149C54.7 149 27.3 137 13.7 131L0 125Z" fill="#98d9ae"></path><path d="M0 283L13.7 304C27.3 325 54.7 367 82 378C109.3 389 136.7 369 163.8 359C191 349 218 349 245.2 372C272.3 395 299.7 441 327 433C354.3 425 381.7 363 409 346C436.3 329 463.7 357 491 358C518.3 359 545.7 333 573 325C600.3 317 627.7 327 654.8 352C682 377 709 417 736.2 410C763.3 403 790.7 349 818 334C845.3 319 872.7 343 886.3 355L900 367L900 269L886.3 252C872.7 235 845.3 201 818 212C790.7 223 763.3 279 736.2 281C709 283 682 231 654.8 215C627.7 199 600.3 219 573 231C545.7 243 518.3 247 491 238C463.7 229 436.3 207 409 220C381.7 233 354.3 281 327 292C299.7 303 272.3 277 245.2 260C218 243 191 235 163.8 240C136.7 245 109.3 263 82 253C54.7 243 27.3 205 13.7 186L0 167Z" fill="#84d19f"></path><path d="M0 499L13.7 510C27.3 521 54.7 543 82 544C109.3 545 136.7 525 163.8 514C191 503 218 501 245.2 511C272.3 521 299.7 543 327 550C354.3 557 381.7 549 409 542C436.3 535 463.7 529 491 523C518.3 517 545.7 511 573 513C600.3 515 627.7 525 654.8 533C682 541 709 547 736.2 545C763.3 543 790.7 533 818 525C845.3 517 872.7 511 886.3 508L900 505L900 365L886.3 353C872.7 341 845.3 317 818 332C790.7 347 763.3 401 736.2 408C709 415 682 375 654.8 350C627.7 325 600.3 315 573 323C545.7 331 518.3 357 491 356C463.7 355 436.3 327 409 344C381.7 361 354.3 423 327 431C299.7 439 272.3 393 245.2 370C218 347 191 347 163.8 357C136.7 367 109.3 387 82 376C54.7 365 27.3 323 13.7 302L0 281Z" fill="#71b789"></path><path d="M0 601L13.7 601C27.3 601 54.7 601 82 601C109.3 601 136.7 601 163.8 601C191 601 218 601 245.2 601C272.3 601 299.7 601 327 601C354.3 601 381.7 601 409 601C436.3 601 463.7 601 491 601C518.3 601 545.7 601 573 601C600.3 601 627.7 601 654.8 601C682 601 709 601 736.2 601C763.3 601 790.7 601 818 601C845.3 601 872.7 601 886.3 601L900 601L900 503L886.3 506C872.7 509 845.3 515 818 523C790.7 531 763.3 541 736.2 543C709 545 682 539 654.8 531C627.7 523 600.3 513 573 511C545.7 509 518.3 515 491 521C463.7 527 436.3 533 409 540C381.7 547 354.3 555 327 548C299.7 541 272.3 519 245.2 509C218 499 191 501 163.8 512C136.7 523 109.3 543 82 542C54.7 541 27.3 519 13.7 508L0 497Z" fill="#5e9d73"></path></svg>